<svg width="19" height="19" viewBox="0 0 19 19" fill="none" xmlns="http://www.w3.org/2000/svg">
<path fill-rule="evenodd" clip-rule="evenodd" d="M5.9362 0.791687C6.37342 0.791687 6.72786 1.14613 6.72786 1.58335V2.37502H12.2695V1.58335C12.2695 1.14613 12.624 0.791687 13.0612 0.791687C13.4984 0.791687 13.8529 1.14613 13.8529 1.58335V2.39456C15.8531 2.59316 17.4154 4.28082 17.4154 6.33335V13.4584C17.4154 15.6445 15.6432 17.4167 13.457 17.4167H5.54036C3.35424 17.4167 1.58203 15.6445 1.58203 13.4584V6.33335C1.58203 4.28082 3.14426 2.59316 5.14453 2.39456V1.58335C5.14453 1.14613 5.49897 0.791687 5.9362 0.791687ZM3.30051 5.54169H15.6969C15.3709 4.61924 14.4911 3.95835 13.457 3.95835H5.54036C4.50627 3.95835 3.62654 4.61924 3.30051 5.54169ZM15.832 7.12502H3.16536V13.4584C3.16536 14.77 4.22869 15.8334 5.54036 15.8334H13.457C14.7687 15.8334 15.832 14.77 15.832 13.4584V7.12502ZM4.7487 9.50002C4.7487 9.06279 5.10314 8.70835 5.54036 8.70835H13.457C13.8943 8.70835 14.2487 9.06279 14.2487 9.50002C14.2487 9.93725 13.8943 10.2917 13.457 10.2917H5.54036C5.10314 10.2917 4.7487 9.93725 4.7487 9.50002Z" fill="#3277BE"/>
</svg>
