<svg width="20" height="20" viewBox="0 0 20 20" fill="none" xmlns="http://www.w3.org/2000/svg">
<circle cx="10" cy="10" r="10" fill="#5180F7"/>
<path d="M15.1605 13.8218L12.0406 10.4999L15.1605 7.17801C15.382 6.94108 15.382 6.55655 15.1605 6.32059L14.0865 5.1777C13.864 4.94077 13.503 4.94077 13.2814 5.1777L10.1615 8.49957L7.0434 5.1777C6.82094 4.94077 6.46081 4.94077 6.23835 5.1777L5.16616 6.32059C4.94461 6.55752 4.94461 6.94108 5.16616 7.17801L8.28517 10.4999L5.16616 13.8218C4.94461 14.0587 4.94461 14.4422 5.16616 14.6792L6.23926 15.823C6.46172 16.059 6.82185 16.059 7.04432 15.823L10.1624 12.5002L13.2823 15.823C13.5039 16.059 13.8649 16.059 14.0874 15.823L15.1614 14.6792C15.383 14.4422 15.383 14.0587 15.1605 13.8218Z" fill="white"/>
</svg>
