<svg width="87" height="87" viewBox="0 0 87 87" fill="none" xmlns="http://www.w3.org/2000/svg">
<circle cx="43.5" cy="43.5" r="42.5" stroke="white" stroke-width="2"/>
<path d="M49.0857 50.1933L49.0858 71.0931C49.0483 72.0422 48.2411 72.8499 47.2939 72.8897H40.141H40.1263L40.1116 72.8902C39.5844 72.9057 39.1756 72.745 38.9177 72.5191C38.6733 72.3051 38.5103 71.9889 38.5244 71.5408L38.5249 71.5251L38.5249 71.5095L38.528 50.5889L38.5281 49.5888L37.528 49.5888L16.3502 49.5888L16.3355 49.5888L16.3208 49.5892C15.4121 49.616 14.717 48.9213 14.7431 48.0128C14.7432 48.0124 14.7432 48.012 14.7432 48.0116L14.9722 40.8376C14.9722 40.8371 14.9722 40.8366 14.9722 40.8361C15.005 39.8833 15.8159 39.068 16.7674 39.0279L37.9262 39.034L38.9165 39.0343L38.9264 38.044L39.1376 16.8796C39.1751 15.9323 39.981 15.1233 40.9274 15.0807L48.3913 15.1686L48.4129 15.1688L48.4345 15.1681C48.9863 15.1507 49.2714 15.3005 49.416 15.4451C49.5606 15.5897 49.7104 15.8749 49.693 16.4266L49.6927 16.4373L49.6926 16.448L49.4783 37.6225L49.4681 38.6326L50.4783 38.6326L71.6901 38.6326L71.7069 38.6326L71.7236 38.632C72.6286 38.6016 73.3259 39.2958 73.2972 40.2077L73.2972 40.2081L73.0742 47.3856C73.0742 47.3857 73.0742 47.3859 73.0742 47.386C73.0441 48.3336 72.2319 49.1531 71.2789 49.1932L50.0857 49.1933L49.0857 49.1933L49.0857 50.1933Z" fill="white" stroke="white" stroke-width="2"/>
</svg>
