<?xml version="1.0" encoding="UTF-8"?>
<svg id="_레이어_1" data-name="레이어_1" xmlns="http://www.w3.org/2000/svg" version="1.1" viewBox="0 0 456.16 48.67">
  <!-- Generator: Adobe Illustrator 29.1.0, SVG Export Plug-In . SVG Version: 2.1.0 Build 142)  -->
  <defs>
    <style>
      .st0 {
        fill: #fff;
      }
    </style>
  </defs>
  <g>
    <path class="st0" d="M82.18,41.95l2.65-6.4h1.48c.28,0,.51-.23.51-.51v-.69h18.23v.69c0,.28.23.51.51.51h1.55l2.65,6.4c.25.62,1.84.41,1.66-.06,0,0-1.11-2.6-2.72-6.34h.35c.28,0,.51-.23.51-.51v-3.49c0-.28-.23-.51-.51-.51h-2.29c-3.09-7.19-6.88-16.04-8.71-20.3.11-.09.19-.23.19-.39v-3.49c0-.28-.23-.51-.51-.51h-3.49c-.28,0-.51.23-.51.51v3.49c0,.14.06.26.14.35-1.82,4.24-5.62,13.13-8.7,20.34h-2.35c-.28,0-.51.23-.51.51v3.49c0,.28.23.51.51.51h.42c-1.6,3.75-2.71,6.34-2.71,6.34-.18.46,1.41.67,1.66.06ZM83.33,32.06h2.47v2.47h-2.47v-2.47ZM108.54,32.06v2.47h-2.47v-2.47h2.47ZM94.75,8.64v-1.27h2.47v2.47h-2.47v-1.2ZM95.55,10.86h.88l8.84,20.29c-.12.09-.21.23-.21.4v1.24h-18.23v-1.24c0-.13-.05-.25-.14-.35l8.86-20.35Z"/>
    <path class="st0" d="M62.22,40.41c6.89,4.04,17.81,1.83,17.21-7.76-.36-5.55-4.97-7.51-10.3-8.45-5.29-1.01-8.04-3.39-8.26-7.13-.12-8.91,9.82-9.79,15.57-5.39v2.53c0,.28.23.51.51.51h3.49c.28,0,.51-.23.51-.51v-3.49c0-.28-.23-.51-.51-.51h-3.33c-6.87-4.95-17.91-3.25-17.8,6.97.79,9.42,10.77,7.2,16.29,11.08,3.25,2.38,2.91,8.22-.05,10.53-3.5,3.01-9.23,2.41-13.15-.21v-2.04c0-.28-.23-.51-.51-.51h-3.49c-.28,0-.51.23-.51.51v3.49c0,.28.23.51.51.51h3.49c.13,0,.25-.05.34-.13ZM79.93,11.23v2.47h-2.47v-2.47h2.47ZM61.37,39.52h-2.47v-2.47h2.47v2.47Z"/>
    <path class="st0" d="M178.8,22.63h-3.49c-.28,0-.51.23-.51.51v.96h-10.68v-.96c0-.28-.23-.51-.51-.51h-3.49c-.28,0-.51.23-.51.51v3.49c0,.28.23.51.51.51h3.49c.28,0,.51-.23.51-.51v-.97h10.68v.97c0,.28.23.51.51.51h1.01c-1.58,12.55-17.83,18.36-26.91,8.96-13.42-14.31,4.39-34.35,19.7-24.52v2.52c0,.28.23.51.51.51h3.49c.28,0,.51-.23.51-.51v-3.49c0-.28-.23-.51-.51-.51h-3.25c-6.66-4.2-16.01-3.35-21.54,2.49-6.83,6.46-6.82,18.15,0,24.6,10.29,10.55,27.95,3.7,29.6-10.05h.88c.28,0,.51-.23.51-.51v-3.49c0-.28-.23-.51-.51-.51ZM163.1,25.67v.45h-2.47v-2.47h2.47v2.02ZM172.61,11.13v2.47h-2.47v-2.47h2.47ZM178.29,26.12h-2.47v-2.47h2.47v2.47Z"/>
    <g>
      <path class="st0" d="M344.5,22.99c2.32-1.22,4.3-3.46,4.3-7.17,0-7.55-6.07-8.56-11.17-8.56h-16.79v32.9h18.18c5.65,0,10.5-2.53,10.5-9.15,0-4.3-2.07-6.79-5.02-8.01ZM331.59,15.44c2.01.16,6.22-.75,6.2,2.15.01,2.88-4.21,1.94-6.2,2.11v-4.26ZM335.51,31.72h-3.92v-4.22h3.92c1.9,0,3.04.42,3.04,2.07s-1.14,2.15-3.04,2.15Z"/>
      <path class="st0" d="M369.77,26.79c0,2.11-.72,4.39-3.59,4.39s-3.59-2.28-3.59-4.39V7.26h-10.97v18.69c0,6.96,2.74,15.14,14.55,15.14s14.55-8.18,14.55-15.14V7.26h-10.97v19.53Z"/>
      <rect class="st0" x="383.69" y="7.26" width="10.76" height="32.9"/>
      <polygon class="st0" points="408.15 7.26 397.4 7.26 397.4 40.16 421.1 40.16 421.1 30.46 408.15 30.46 408.15 7.26"/>
      <path class="st0" d="M436.92,7.26h-12.86v32.9h12.86c13.5,0,16.24-6.79,16.24-16.37s-3.21-16.53-16.24-16.53ZM437.13,30.25h-2.32v-13.08c5.05-.25,7.64.49,7.59,6.62,0,4.43-.72,6.45-5.27,6.45Z"/>
    </g>
    <path class="st0" d="M141.49,11.26c.28,0,.51-.23.51-.51v-3.49c0-.28-.23-.51-.51-.51h-3.49c-.28,0-.51.23-.51.51v3.49c0,.28.23.51.51.51h1.02v26.54h-.65l-20.51-27.63v-2.9c0-.28-.23-.51-.51-.51h-3.49c-.28,0-.51.23-.51.51v3.49c0,.28.23.51.51.51h.93v26.56h-.93c-.28,0-.51.23-.51.51v3.49c0,.28.23.51.51.51h3.49c.28,0,.51-.23.51-.51v-3.49c0-.28-.23-.51-.51-.51h-.93V11.26h.21l20.86,28.14v2.4c0,.28.23.51.51.51h3.49c.28,0,.51-.23.51-.51v-3.49c0-.28-.23-.51-.51-.51h-.83V11.26h.83ZM116.84,41.31h-2.46v-2.46h2.46v2.46ZM114.38,7.78h2.46v2.46h-2.46v-2.46ZM140.98,41.29h-2.46v-2.46h2.46v2.46ZM138.52,7.78h2.46v2.46h-2.46v-2.46Z"/>
    <path class="st0" d="M212.87,41.95l2.65-6.4h1.48c.28,0,.51-.23.51-.51v-.69h18.23v.69c0,.28.23.51.51.51h1.55l2.65,6.4c.25.62,1.84.41,1.66-.06,0,0-1.11-2.6-2.72-6.34h.35c.28,0,.51-.23.51-.51v-3.49c0-.28-.23-.51-.51-.51h-2.29c-3.09-7.19-6.88-16.04-8.71-20.3.11-.09.19-.23.19-.39v-3.49c0-.28-.23-.51-.51-.51h-3.49c-.28,0-.51.23-.51.51v3.49c0,.14.06.26.14.35-1.82,4.24-5.62,13.13-8.7,20.34h-2.35c-.28,0-.51.23-.51.51v3.49c0,.28.23.51.51.51h.42c-1.6,3.75-2.71,6.34-2.71,6.34-.18.46,1.41.67,1.66.06ZM214.02,32.06h2.47v2.47h-2.47v-2.47ZM239.23,32.06v2.47h-2.47v-2.47h2.47ZM225.44,8.64v-1.27h2.47v2.47h-2.47v-1.2ZM226.23,10.86h.88l8.84,20.29c-.12.09-.21.23-.21.4v1.24h-18.23v-1.24c0-.13-.05-.25-.14-.35l8.86-20.35Z"/>
    <path class="st0" d="M192.91,40.41c6.89,4.04,17.81,1.83,17.21-7.76-.36-5.55-4.97-7.51-10.3-8.45-5.29-1.01-8.04-3.39-8.26-7.13-.12-8.91,9.82-9.79,15.57-5.39v2.53c0,.28.23.51.51.51h3.49c.28,0,.51-.23.51-.51v-3.49c0-.28-.23-.51-.51-.51h-3.33c-6.87-4.95-17.91-3.25-17.8,6.97.79,9.42,10.77,7.2,16.29,11.08,3.25,2.38,2.91,8.22-.05,10.53-3.5,3.01-9.23,2.41-13.15-.21v-2.04c0-.28-.23-.51-.51-.51h-3.49c-.28,0-.51.23-.51.51v3.49c0,.28.23.51.51.51h3.49c.13,0,.25-.05.34-.13ZM210.62,11.23v2.47h-2.47v-2.47h2.47ZM192.06,39.52h-2.47v-2.47h2.47v2.47Z"/>
    <path class="st0" d="M309.49,22.63h-3.49c-.28,0-.51.23-.51.51v.96h-10.68v-.96c0-.28-.23-.51-.51-.51h-3.49c-.28,0-.51.23-.51.51v3.49c0,.28.23.51.51.51h3.49c.28,0,.51-.23.51-.51v-.97h10.68v.97c0,.28.23.51.51.51h1.01c-1.58,12.55-17.83,18.36-26.91,8.96-13.42-14.31,4.39-34.35,19.7-24.52v2.52c0,.28.23.51.51.51h3.49c.28,0,.51-.23.51-.51v-3.49c0-.28-.23-.51-.51-.51h-3.25c-6.66-4.2-16.01-3.35-21.54,2.49-6.83,6.46-6.82,18.15,0,24.6,10.29,10.55,27.95,3.7,29.6-10.05h.88c.28,0,.51-.23.51-.51v-3.49c0-.28-.23-.51-.51-.51ZM293.78,25.67v.45h-2.47v-2.47h2.47v2.02ZM303.29,11.13v2.47h-2.47v-2.47h2.47ZM308.98,26.12h-2.47v-2.47h2.47v2.47Z"/>
    <path class="st0" d="M272.18,11.26c.28,0,.51-.23.51-.51v-3.49c0-.28-.23-.51-.51-.51h-3.49c-.28,0-.51.23-.51.51v3.49c0,.28.23.51.51.51h1.02v26.54h-.65l-20.51-27.63v-2.9c0-.28-.23-.51-.51-.51h-3.49c-.28,0-.51.23-.51.51v3.49c0,.28.23.51.51.51h.93v26.56h-.93c-.28,0-.51.23-.51.51v3.49c0,.28.23.51.51.51h3.49c.28,0,.51-.23.51-.51v-3.49c0-.28-.23-.51-.51-.51h-.93V11.26h.21l20.86,28.14v2.4c0,.28.23.51.51.51h3.49c.28,0,.51-.23.51-.51v-3.49c0-.28-.23-.51-.51-.51h-.83V11.26h.83ZM247.53,41.31h-2.46v-2.46h2.46v2.46ZM245.07,7.78h2.46v2.46h-2.46v-2.46ZM271.67,41.29h-2.46v-2.46h2.46v2.46ZM269.2,7.78h2.46v2.46h-2.46v-2.46Z"/>
  </g>
  <path class="st0" d="M42.46,22.31c3.06-1.91,4.87-5.37,4.87-9.35C47.33,4.35,41.74.33,29.75.33h-11.58s-.15-.01-.15-.01c-.03,0-.04,0-.07,0-.03,0-.07,0-.11.02-.02,0-.04.01-.05.02L6.04,6.9c-.11.06-.18.16-.2.28l-1.63,8.05s0,.03,0,.05c0,.02,0,.04,0,.06,0,.01,0,.03.01.05,0,.02,0,.04.01.05l2.07,6.29c.03.09.08.16.16.21l5.99,4.14s.08.04.1.05l9.94,3.34,4.46,2.49.68,3.43-2.57,2.63-7.41-.1-3.83-3.05-.52-3.43s0-.03-.01-.05c0-.02,0-.03-.01-.05-.01-.03-.04-.06-.06-.09-.03-.04-.07-.07-.11-.1-.03-.02-.07-.03-.07-.03-.03-.02-.09-.03-.12-.03l-9.47-.11c-.11,0-.22.05-.3.13-.08.08-.12.19-.11.31l.22,4.02s0,.07.03.12c0,.02,0,.03.02.04l4.24,8.41s.03.05.05.07c.03.04.07.07.11.09.02.02.04.03.06.04l10.96,4.12s.02,0,.03.01h0s.09.03.15.03c.01,0,.02,0,.03,0,.01,0,.03,0,.04,0h13.38c12.09-.01,18.22-4.82,18.22-14.31,0-5.05-3.16-9.61-8.08-11.73ZM36.34,8.51l.83,5.82c.02.17-.14.3-.3.25l-9.38-3.15c-.12-.04-.19-.18-.14-.3l.83-2.14h1.06c.05,0,.1-.04.1-.1v-.58h6.77c.11,0,.21.08.23.2ZM19.27,22.94h-1.69s-.05.01-.07.04l-3.7-2.7c-.08-.06-.12-.17-.08-.27l2-4.92c.06-.15.27-.19.38-.07l3.48,3.79s.05.05.09.06c.58.24,5.62,1.93,7.59,2.6.22.07.2.39-.03.44-1.78.36-6.02,1.22-7.87,1.6v-.46c0-.05-.04-.1-.1-.1ZM18.98,23.42v.93c0,.05-.04.1-.1.1h-.93c-.05,0-.1-.04-.1-.1v-.93c0-.05.04-.1.1-.1h.93c.05,0,.1.04.1.1ZM8.63,13.01h1.69c.05,0,.1-.04.1-.1v-.08l4.9,1.6c.13.04.19.18.14.3l-2.03,4.99c-.05.13-.2.18-.32.11l-7.84-4.37c-.15-.08-.16-.29-.02-.38l3.28-2.38v.21c0,.05.04.1.1.1ZM8.92,12.53v-.93c0-.05.04-.1.1-.1h.93c.05,0,.1.04.1.1v.93c0,.05-.04.1-.1.1h-.93c-.05,0-.1-.04-.1-.1ZM10.42,12.43v-.48l8.77-2.43c.18-.05.31.16.19.3l-3.59,4.22c-.06.07-.16.1-.24.07l-5.13-1.68ZM27.4,12.18c-.05-.17.12-.33.29-.27l7.52,2.52c.24.08.19.43-.06.44l-6.81.24c-.11,0-.2-.07-.23-.17l-.72-2.76ZM27.85,8.52v-.93c0-.05.04-.1.1-.1h.93c.05,0,.1.04.1.1v.93c0,.05-.04.1-.1.1h-.93s0,0-.01,0c-.05,0-.08-.04-.08-.09ZM29.68,2.36l5.85,5.18c.16.14.06.4-.15.4h-6.03v-.73c0-.05-.04-.1-.1-.1h-.59l.65-4.62c.03-.18.24-.26.38-.14ZM28.89,2.73l-.62,4.38h-.71c-.05,0-.1.04-.1.1v1.69c0,.05.04.1.1.1h.22l-.79,2.03c-.05.12-.18.17-.29.13l-5.57-2.1c-.16-.06-.2-.28-.06-.39l7.46-6.14c.16-.13.4,0,.37.21ZM18.58.97l9.61.82c.2.02.28.27.13.4l-7.56,6.23c-.13.1-.32.04-.36-.11l-2.05-7.05c-.04-.15.08-.3.24-.29ZM18.03,1.56l2.05,7.06c.04.12-.04.25-.16.28l-9.5,2.64v-.33c0-.05-.04-.1-.1-.1h-.3L17.63,1.49c.11-.15.35-.1.4.08ZM5.01,14.29l1.38-6.81c.01-.07.05-.12.11-.15L16.4,1.83c.18-.1.38.12.25.29l-7.12,9h-.9c-.05,0-.1.04-.1.1v1.01l-3.17,2.3c-.17.12-.4-.03-.36-.23ZM12.6,25.45l-5.7-3.94s-.07-.07-.09-.12l-1.69-5.15c-.06-.2.14-.37.32-.27,3.2,1.71,9.19,5.14,12.04,7.4v.6l-4.69,1.5c-.07.02-.14.01-.2-.03ZM21.36,28.46l-7.43-2.5c-.21-.07-.21-.37,0-.43l3.55-1.14v.34c0,.05.04.1.1.1h1.37l2.66,3.28c.14.18-.03.43-.25.36ZM26.86,31.22l-4.02-2.24s-.05-.03-.07-.06l-3.41-4.19s0,0,0,0v-.84l8.86-1.8c.15-.03.29.1.27.26l-1.3,8.72c-.02.16-.2.24-.34.17ZM27.53,31.38l1.33-8.87c.03-.17.23-.25.37-.15l7.01,5.52c.08.06.11.16.07.25l-1.88,5.36h-.97c-.05,0-.1.04-.1.1v.27l-5.69-2.25c-.1-.04-.16-.14-.14-.25ZM34.77,33.89c.05,0,.1.04.1.1v.93c0,.05-.04.1-.1.1h-.93c-.05,0-.1-.04-.1-.1v-.93c0-.05.04-.1.1-.1h.93ZM13.6,35.93c0-.19.22-.29.37-.17l2.99,2.38c.11.09.11.27,0,.36l-2.78,2.21s-.01,0-.02,0h-.64l.08-4.76ZM13.77,41.07c.05,0,.1.04.1.1v.93c0,.05-.04.1-.1.1h-.93c-.05,0-.1-.04-.1-.1v-.93c0-.05.04-.1.1-.1h.93ZM3.78,34.65l-.14-2.56c-.02-.28.21-.51.49-.51l7.35.08c.11,0,.14.15.04.19l-7.28,3.08c-.21.09-.45-.06-.46-.29ZM4.65,35.18l7.69-3.26c.21-.09.44.03.49.25.43,2.08.4,6.23.32,8.5,0,0,0,.01,0,.02h-.68c-.05,0-.1.04-.1.1h0s-7.77-4.99-7.77-4.99c-.24-.15-.21-.51.05-.62ZM7.84,43.33l-3.26-6.45c-.13-.26.17-.53.41-.37l7.37,4.74v.55l-4.16,1.66c-.14.06-.3,0-.36-.14ZM17.36,47.17l-8.41-3.16c-.19-.07-.2-.35,0-.42l3.42-1.37v.26c0,.05.04.1.1.1h1.42l3.72,4.23c.16.18-.03.45-.25.36ZM18.64,47.41l-4.39-4.99v-1.29l3.24-2.57s.09-.05.14-.05l6.81.1c.18,0,.29.2.19.35l-5.62,8.43c-.08.12-.26.14-.36.02ZM32.32,45.04c-1.69.34-10.26,2.07-12.51,2.52-.2.04-.35-.18-.23-.35,1.75-2.65,6.05-9.4,8.2-11.19.11-.1.29-.06.35.07.65,1.29,3.67,7.29,4.35,8.63.07.13,0,.29-.16.32ZM32.45,43.82l-4.2-8.34s-.02-.04-.02-.06l-.6-3.02c-.04-.18.14-.32.31-.26l5.43,2.14v1.01c0,.05.04.1.1.1h.53l-1.11,8.35c-.03.22-.33.27-.43.07ZM37.85,38.61l-4.17,5.21c-.14.18-.43.06-.4-.17l1.09-8.25h.78c.05,0,.1-.04.1-.1v-1.69c0-.05-.04-.1-.1-.1h-.31l1.37-3.9c.08-.23.41-.19.44.04l1.26,8.78c0,.06,0,.13-.05.17Z"/>
</svg>